<?xml version="1.0" encoding="UTF-8"?>
<svg width="1200pt" height="1200pt" version="1.1" viewBox="0 0 1200 1200" xmlns="http://www.w3.org/2000/svg">
 <path d="m796.8 255.6h-153.6c-3.6016-106.8-72-170.4-184.8-170.4-13.199 0-24 10.801-24 24s10.801 24 24 24c86.398 0 134.4 42 138 122.4h-192c-66 0-121.2 26.398-162 68.398-1.1992 1.1992-3.6016 2.3984-4.8008 3.6016-1.1992 1.1992-2.3984 3.6016-3.6016 4.8008-52.801 57.602-80.398 139.2-80.398 220.8 0 13.199 10.801 24 24 24h50.398v15.602c0 223.2 92.398 454.8 297.6 475.2 2.3984 1.1992 3.6016 3.6016 6 6 16.801 16.801 43.199 40.801 70.801 40.801 28.801 0 52.801-26.398 69.602-44.398l4.8008-4.8008c94.801-9.6055 174-66.004 226.8-165.61 45.602-84 69.602-193.2 69.602-308.4v-15.602h50.398c13.199 0 24-10.801 24-24 1.1992-145.2-93.602-296.4-250.8-296.4zm153.6 273.6h-111.6l-16.801-16.801 57.602-57.602 74.398 74.398zm-284.4 0-28.801-28.801 51.602-51.602 63.602 63.602-16.801 16.801zm-194.4 0-16.801-16.801 63.602-63.602 51.602 51.602-28.801 28.801zm-216 0 74.398-74.398 57.602 57.602-16.801 16.801zm0-148.8 40.801 40.801-93.602 93.602c6-45.602 22.801-94.801 52.801-134.4zm120-74.398 18 18-63.602 63.602-42-42c24-20.402 52.801-34.801 87.602-39.602zm169.2-2.3984 25.199 25.199-51.602 51.602-57.598-56.402 20.398-20.398zm182.4 0 20.398 20.398-57.602 57.602-51.602-51.602 25.199-25.199h63.605zm189.6 45.598s-1.1992 1.1992 0 0l-38.398 38.398-63.602-63.598 16.801-16.801c33.598 6 62.398 21.602 85.199 42zm-72 72-57.602 57.602-63.602-63.602 57.602-57.602zm-188.4-6-51.602 51.602-52.797-51.602 51.602-51.602zm-171.6 0-63.602 63.602-57.602-57.602 63.602-63.602zm427.2 6 36-36c25.199 36 40.801 78 48 120zm14.398 170.4c0 282-132 416.4-262.8 426-12 1.1992-18 8.3984-28.801 19.199-6 7.1992-26.398 27.602-34.801 28.801-9.6016 0-30-20.398-38.398-27.602-10.801-10.801-18-18-28.801-18-129.6-9.6016-259.2-146.4-259.2-428.4v-15.602h652.8z"/>
</svg>
